<svg width="24" height="24" viewBox="0 0 24 24" fill="none" xmlns="http://www.w3.org/2000/svg">
<path d="M20 15.5C20.5523 15.5 21 15.9477 21 16.5C21 17.0523 20.5523 17.5 20 17.5V15.5ZM4 17.5C3.44772 17.5 3 17.0523 3 16.5C3 15.9477 3.44772 15.5 4 15.5V17.5ZM15 14.5C15 13.9477 15.4477 13.5 16 13.5C16.5523 13.5 17 13.9477 17 14.5H15ZM17 18.5C17 19.0523 16.5523 19.5 16 19.5C15.4477 19.5 15 19.0523 15 18.5H17ZM20 17.5H16V15.5H20V17.5ZM13 17.5H4V15.5H13V17.5ZM15 16.5V14.5H17V16.5H15ZM17 16.5V18.5H15V16.5H17Z" fill="currentColor"/>
<path d="M4 6.5C3.44772 6.5 3 6.94772 3 7.5C3 8.05228 3.44772 8.5 4 8.5V6.5ZM20 8.5C20.5523 8.5 21 8.05228 21 7.5C21 6.94772 20.5523 6.5 20 6.5V8.5ZM9 5.5C9 4.94772 8.55228 4.5 8 4.5C7.44772 4.5 7 4.94772 7 5.5H9ZM7 9.5C7 10.0523 7.44772 10.5 8 10.5C8.55228 10.5 9 10.0523 9 9.5H7ZM4 8.5H8V6.5H4V8.5ZM11 8.5H20V6.5H11V8.5ZM9 7.5V5.5H7V7.5H9ZM7 7.5V9.5H9V7.5H7Z" fill="currentColor"/>
</svg>
