<svg width="24" height="24" viewBox="0 0 24 24" fill="none" xmlns="http://www.w3.org/2000/svg">
<path d="M11 12L11.2631 12.9648C11.6982 12.8461 12 12.451 12 12C12 11.549 11.6982 11.1539 11.2631 11.0352L11 12ZM6.12703 20.7719L5.64335 19.8967L6.12703 20.7719ZM19.6243 10.6871L19.1407 11.5624L19.6243 10.6871ZM19.6243 13.3129L19.1407 12.4376L19.6243 13.3129ZM6.12704 3.2281L5.64335 4.10334L6.12704 3.2281ZM5.64335 4.10334L19.1407 11.5624L20.108 9.8119L6.61072 2.35286L5.64335 4.10334ZM19.1407 12.4376L5.64335 19.8967L6.61072 21.6471L20.108 14.1881L19.1407 12.4376ZM4.91975 19.3252L5.85509 15.958L3.92805 15.4227L2.99271 18.7899L4.91975 19.3252ZM7.95629 13.8666L11.2631 12.9648L10.7369 11.0352L7.43006 11.9371L7.95629 13.8666ZM11.2631 11.0352L7.95629 10.1334L7.43006 12.0629L10.7369 12.9648L11.2631 11.0352ZM5.85509 8.04201L4.91975 4.67478L2.99271 5.21007L3.92805 8.5773L5.85509 8.04201ZM5.85509 15.958C6.13805 14.9393 6.93631 14.1448 7.95629 13.8666L7.43006 11.9371C5.73009 12.4007 4.39966 13.7249 3.92805 15.4227L5.85509 15.958ZM5.64335 19.8967C5.25549 20.111 4.80114 19.7522 4.91975 19.3252L2.99271 18.7899C2.39969 20.9248 4.67143 22.7189 6.61072 21.6471L5.64335 19.8967ZM19.1407 11.5624C19.4849 11.7526 19.4849 12.2474 19.1407 12.4376L20.108 14.1881C21.8291 13.237 21.8291 10.763 20.108 9.8119L19.1407 11.5624ZM7.95629 10.1334C6.93631 9.8552 6.13805 9.06068 5.85509 8.04201L3.92805 8.5773C4.39966 10.2751 5.73009 11.5993 7.43006 12.0629L7.95629 10.1334ZM6.61072 2.35286C4.67143 1.28114 2.39969 3.07519 2.99271 5.21007L4.91975 4.67478C4.80114 4.24781 5.25549 3.889 5.64335 4.10334L6.61072 2.35286Z" fill="black"/>
</svg>
