<svg width="24" height="24" viewBox="0 0 24 24" fill="none" xmlns="http://www.w3.org/2000/svg">
<path d="M10.5 12L10.8162 12.9487C11.2246 12.8126 11.5 12.4304 11.5 12C11.5 11.5696 11.2246 11.1874 10.8162 11.0513L10.5 12ZM5.3999 15.4803L4.44287 15.1903L5.3999 15.4803ZM19.4821 10.673L19.0159 11.5577L19.4821 10.673ZM19.4821 13.327L19.0159 12.4423L19.4821 13.327ZM5.3999 8.51966L4.44287 8.80966L5.3999 8.51966ZM6.20983 4.80853L19.0159 11.5577L19.9484 9.78836L7.14231 3.03922L6.20983 4.80853ZM19.0159 12.4423L6.20983 19.1915L7.1423 20.9608L19.9484 14.2116L19.0159 12.4423ZM5.4982 18.6041L6.35692 15.7703L4.44287 15.1903L3.58415 18.0241L5.4982 18.6041ZM8.27931 13.7943L10.8162 12.9487L10.1838 11.0513L7.64685 11.897L8.27931 13.7943ZM10.8162 11.0513L8.27931 10.2057L7.64685 12.103L10.1838 12.9487L10.8162 11.0513ZM6.35692 8.22965L5.4982 5.39587L3.58415 5.97588L4.44287 8.80966L6.35692 8.22965ZM6.35692 15.7703C6.6392 14.8388 7.35589 14.1021 8.27931 13.7943L7.64685 11.897C6.10782 12.41 4.91335 13.6378 4.44287 15.1903L6.35692 15.7703ZM6.20983 19.1915C5.81706 19.3985 5.36944 19.029 5.4982 18.6041L3.58415 18.0241C2.94037 20.1486 5.17846 21.9958 7.1423 20.9608L6.20983 19.1915ZM19.0159 11.5577C19.3717 11.7452 19.3717 12.2548 19.0159 12.4423L19.9484 14.2116C21.7276 13.274 21.7276 10.726 19.9484 9.78836L19.0159 11.5577ZM8.27931 10.2057C7.35589 9.89787 6.6392 9.16119 6.35692 8.22965L4.44287 8.80966C4.91335 10.3622 6.10782 11.59 7.64685 12.103L8.27931 10.2057ZM7.14231 3.03922C5.17847 2.00422 2.94037 3.8514 3.58415 5.97588L5.4982 5.39587C5.36944 4.97097 5.81706 4.60153 6.20983 4.80853L7.14231 3.03922Z" fill="#8994A3"/>
</svg>
