<svg width="24" height="24" viewBox="0 0 24 24" fill="none" xmlns="http://www.w3.org/2000/svg">
<path d="M5.70711 4.29289C5.31658 3.90237 4.68342 3.90237 4.29289 4.29289C3.90237 4.68342 3.90237 5.31658 4.29289 5.70711L5.70711 4.29289ZM6.29289 7.70711C6.68342 8.09763 7.31658 8.09763 7.70711 7.70711C8.09763 7.31658 8.09763 6.68342 7.70711 6.29289L6.29289 7.70711ZM5 13C5.55228 13 6 12.5523 6 12C6 11.4477 5.55228 11 5 11V13ZM2 11C1.44772 11 1 11.4477 1 12C1 12.5523 1.44772 13 2 13V11ZM4.29289 18.2929C3.90237 18.6834 3.90237 19.3166 4.29289 19.7071C4.68342 20.0976 5.31658 20.0976 5.70711 19.7071L4.29289 18.2929ZM7.70711 17.7071C8.09763 17.3166 8.09763 16.6834 7.70711 16.2929C7.31658 15.9024 6.68342 15.9024 6.29289 16.2929L7.70711 17.7071ZM13 19C13 18.4477 12.5523 18 12 18C11.4477 18 11 18.4477 11 19H13ZM11 22C11 22.5523 11.4477 23 12 23C12.5523 23 13 22.5523 13 22H11ZM18.2929 19.7071C18.6834 20.0976 19.3166 20.0976 19.7071 19.7071C20.0976 19.3166 20.0976 18.6834 19.7071 18.2929L18.2929 19.7071ZM17.7071 16.2929C17.3166 15.9024 16.6834 15.9024 16.2929 16.2929C15.9024 16.6834 15.9024 17.3166 16.2929 17.7071L17.7071 16.2929ZM22 13C22.5523 13 23 12.5523 23 12C23 11.4477 22.5523 11 22 11V13ZM19 11C18.4477 11 18 11.4477 18 12C18 12.5523 18.4477 13 19 13V11ZM19.7071 5.70711C20.0976 5.31658 20.0976 4.68342 19.7071 4.29289C19.3166 3.90237 18.6834 3.90237 18.2929 4.29289L19.7071 5.70711ZM16.2929 6.29289C15.9024 6.68342 15.9024 7.31658 16.2929 7.70711C16.6834 8.09763 17.3166 8.09763 17.7071 7.70711L16.2929 6.29289ZM13 2C13 1.44772 12.5523 1 12 1C11.4477 1 11 1.44772 11 2H13ZM11 5C11 5.55228 11.4477 6 12 6C12.5523 6 13 5.55228 13 5H11ZM12 20C16.4183 20 20 16.4183 20 12H18C18 15.3137 15.3137 18 12 18V20ZM4 12C4 16.4183 7.58172 20 12 20V18C8.68629 18 6 15.3137 6 12H4ZM12 4C7.58172 4 4 7.58172 4 12H6C6 8.68629 8.68629 6 12 6V4ZM20 12C20 7.58172 16.4183 4 12 4V6C15.3137 6 18 8.68629 18 12H20ZM4.29289 5.70711L6.29289 7.70711L7.70711 6.29289L5.70711 4.29289L4.29289 5.70711ZM5 11H2V13H5V11ZM5.70711 19.7071L7.70711 17.7071L6.29289 16.2929L4.29289 18.2929L5.70711 19.7071ZM11 19V22H13V19H11ZM19.7071 18.2929L17.7071 16.2929L16.2929 17.7071L18.2929 19.7071L19.7071 18.2929ZM22 11H19V13H22V11ZM18.2929 4.29289L16.2929 6.29289L17.7071 7.70711L19.7071 5.70711L18.2929 4.29289ZM11 2V5H13V2H11Z" fill="black"/>
</svg>
