<svg width="24" height="24" viewBox="0 0 24 24" fill="none" xmlns="http://www.w3.org/2000/svg">
<path d="M6 6V16.8C6 17.9201 6 18.4802 6.21799 18.908C6.40973 19.2843 6.71569 19.5903 7.09202 19.782C7.51984 20 8.07989 20 9.2 20H14.8C15.9201 20 16.4802 20 16.908 19.782C17.2843 19.5903 17.5903 19.2843 17.782 18.908C18 18.4802 18 17.9201 18 16.8V6M6 6H4M6 6H10M18 6H20M18 6H14M10 6V5C10 3.89543 10.8954 3 12 3V3C13.1046 3 14 3.89543 14 5V6M10 6H14" stroke="currentColor" stroke-width="2" stroke-linecap="round" stroke-linejoin="round"/>
</svg>
