<svg width="24" height="24" viewBox="0 0 24 24" fill="none" xmlns="http://www.w3.org/2000/svg">
<path d="M8 8V7.2C8 6.07989 8 5.51984 8.21799 5.09202C8.40973 4.71569 8.71569 4.40973 9.09202 4.21799C9.51984 4 10.0799 4 11.2 4H16.8C17.9201 4 18.4802 4 18.908 4.21799C19.2843 4.40973 19.5903 4.71569 19.782 5.09202C20 5.51984 20 6.07989 20 7.2V16.8C20 17.9201 20 18.4802 19.782 18.908C19.5903 19.2843 19.2843 19.5903 18.908 19.782C18.4802 20 17.9201 20 16.8 20H11.2C10.0799 20 9.51984 20 9.09202 19.782C8.71569 19.5903 8.40973 19.2843 8.21799 18.908C8 18.4802 8 17.9201 8 16.8V16M12 12H1M1 12L4 9M1 12L4 15" stroke="currentColor" stroke-width="2" stroke-linecap="round" stroke-linejoin="round"/>
</svg>
