<svg width="40" height="40" viewBox="0 0 40 40" fill="none" xmlns="http://www.w3.org/2000/svg">
<g clip-path="url(#clip0)">
<path d="M19.9999 9.93818C20.4079 9.32545 20.9609 8.60184 21.6699 7.89699C23.4453 6.13192 26.2423 4.45304 30.1414 5.01005C34.5061 5.63358 37.3219 8.42753 38.3094 12.0353C39.2853 15.6004 38.462 19.8738 35.8138 23.5812C31.5662 29.5279 23.9114 34.0165 21.3591 35.4117C20.5078 35.8771 19.4922 35.8771 18.6409 35.4117C16.0886 34.0165 8.4339 29.5279 4.18619 23.5812C1.53793 19.8738 0.714678 15.6004 1.69055 12.0353C2.67807 8.42754 5.49397 5.63361 9.85873 5.01005C13.7577 4.45304 16.5547 6.13193 18.33 7.89701C19.0389 8.60185 19.5919 9.32546 19.9999 9.93818Z" fill="url(#paint0_linear)"/>
</g>
<defs>
<linearGradient id="paint0_linear" x1="1.29407" y1="4.9014" x2="31.5901" y2="41.6303" gradientUnits="userSpaceOnUse">
<stop stop-color="#F261CE"/>
<stop offset="1" stop-color="#E6508E"/>
</linearGradient>
<clipPath id="clip0">
<rect width="40" height="40" fill="white"/>
</clipPath>
</defs>
</svg>
