<svg width="24" height="24" viewBox="0 0 24 24" fill="none" xmlns="http://www.w3.org/2000/svg">
<path d="M9 17H7.23886C5.85143 17 5.15772 17 4.7615 16.7091C4.416 16.4554 4.19554 16.066 4.15576 15.6392C4.11014 15.1498 4.46705 14.5549 5.18087 13.3652L5.54398 12.76C5.71371 12.4771 5.79858 12.3357 5.85859 12.1847C5.91187 12.0506 5.95049 11.9112 5.97377 11.7689C6 11.6085 6 11.4436 6 11.1137V9C6 9 6 3 12 3C18 3 18 9 18 9V11.1137C18 11.4436 18 11.6085 18.0262 11.7689C18.0495 11.9112 18.0881 12.0506 18.1414 12.1847C18.2014 12.3357 18.2863 12.4771 18.456 12.76L18.8191 13.3652C19.533 14.5549 19.8899 15.1498 19.8442 15.6392C19.8045 16.066 19.584 16.4554 19.2385 16.7091C18.8423 17 18.1486 17 16.7611 17H15M9 17C9 17 9 20.5 12 20.5C15 20.5 15 17 15 17M9 17H15" stroke="currentColor" stroke-width="2" stroke-linecap="round" stroke-linejoin="round"/>
</svg>
