<svg width="24" height="24" viewBox="0 0 24 24" fill="none" xmlns="http://www.w3.org/2000/svg">
    <path d="M12 0C14.3734 0 16.6935 0.703787 18.6668 2.02237C20.6402 3.34094 22.1783 5.21509 23.0866 7.4078C23.9948 9.60051 24.2324 12.0133 23.7694 14.3411C23.3064 16.6689 22.1635 18.8071 20.4853 20.4853C18.8071 22.1635 16.6689 23.3064 14.3411 23.7694C12.0133 24.2324 9.60051 23.9948 7.4078 23.0866C5.21509 22.1783 3.34094 20.6402 2.02236 18.6668C0.703788 16.6935 -2.83022e-08 14.3734 0 12H1.98C1.98 13.9818 2.56766 15.919 3.66867 17.5668C4.76969 19.2146 6.3346 20.4989 8.16551 21.2573C9.99643 22.0157 12.0111 22.2141 13.9548 21.8275C15.8985 21.4408 17.6839 20.4865 19.0852 19.0852C20.4865 17.6839 21.4408 15.8985 21.8275 13.9548C22.2141 12.0111 22.0157 9.99643 21.2573 8.16551C20.4989 6.3346 19.2146 4.76969 17.5668 3.66867C15.919 2.56766 13.9818 1.98 12 1.98V0Z" fill="currentColor"/>
</svg>
